# xmcd
#
# Track frame offsets: 
#        150
#        19780
#        58144
#        77273
#        96281
#        110820
#        126808
#        150937
#        166512
#        183554
#
# Disc length: 2795 seconds
#
# Revision: 2
# Processed by: cddbd v1.5.2PL0 Copyright (c) Steve Scherf et al.
# Submitted via: ExactAudioCopy v0.95b3
#
DISCID=710ae90a
DTITLE=Lynyrd Skynyrd - Playlist Plus (3)
DYEAR=2008
DGENRE=Rock
TTITLE0=Whiskey Rock-A-Roller LIVE
TTITLE1=T For Texas LIVE
TTITLE2=Travellin' Man LIVE
TTITLE3=Four Walls Of Raiford UNDUBBED DEMO
TTITLE4=Georgia Peaches
TTITLE5=What's Your Name
TTITLE6=I Never Dreamed
TTITLE7=I Know A Little
TTITLE8=You Got That Right
TTITLE9=That Smell
EXTD=
EXTT0=T For Texas (Live)
EXTT1=
EXTT2=
EXTT3=
EXTT4=
EXTT5=
EXTT6=
EXTT7=
EXTT8=
EXTT9=
PLAYORDER=
